<svg xmlns="http://www.w3.org/2000/svg" width="20" height="16" viewBox="0 0 20 16">
    <path fill="#6D6F7B" fill-rule="evenodd" d="M6.488 15.385c7.256 0 11.226-5.92 11.226-11.053 0-.168 0-.336-.012-.502a7.955 7.955 0 0 0 1.968-2.011c-.719.314-1.483.52-2.265.611A3.912 3.912 0 0 0 19.14.281a7.982 7.982 0 0 1-2.506.944 3.993 3.993 0 0 0-5.583-.169A3.851 3.851 0 0 0 9.91 4.768 11.267 11.267 0 0 1 1.778.71 3.85 3.85 0 0 0 3 5.894 3.962 3.962 0 0 1 1.21 5.41v.049c0 1.849 1.325 3.441 3.165 3.807-.58.157-1.19.18-1.78.066C3.11 10.915 4.59 12 6.278 12.03a7.995 7.995 0 0 1-5.84 1.61 11.3 11.3 0 0 0 6.049 1.742"/>
</svg>
