<svg xmlns="http://www.w3.org/2000/svg" width="18" height="15" viewBox="0 0 18 15">
    <path fill="#6D6F7B" fill-rule="nonzero" d="M16.461.001c-.22.01-.426.073-.61.143h-.003c-.186.073-1.073.44-2.419.994L8.601 3.136 1.73 5.979l.041-.015s-.235.075-.48.241c-.125.08-.263.19-.383.364-.12.173-.217.439-.182.713.059.464.366.742.585.895.223.156.435.229.435.229h.005l3.193 1.056c.143.452.973 3.132 1.173 3.75.117.369.232.6.375.775.07.09.15.166.248.226a.738.738 0 0 0 .16.068l-.032-.008c.01.003.018.01.025.013.026.007.044.01.077.015.506.15.912-.158.912-.158l.023-.018L9.79 12.44l3.16 2.381.072.03c.659.284 1.326.126 1.678-.153.355-.28.493-.64.493-.64l.023-.057L17.66 1.71c.069-.303.086-.587.01-.863a1.163 1.163 0 0 0-.511-.672A1.241 1.241 0 0 0 16.46 0zm-.066 1.318c-.003.04.005.035-.013.113v.007l-2.419 12.162c-.01.017-.028.055-.077.092-.05.04-.092.066-.304-.017l-3.865-2.911-2.335 2.09.49-3.076 6.316-5.782c.26-.239.173-.289.173-.289.018-.291-.393-.085-.393-.085L6.005 8.469l-.002-.013-3.817-1.262V7.19l-.01-.002.02-.008.02-.01.021-.007L9.11 4.32l4.826-1.997a701.03 701.03 0 0 1 2.394-.984c.053-.02.028-.02.066-.02z"/>
</svg>
